<svg width="192" height="192" viewBox="0 0 192 192" fill="none" xmlns="http://www.w3.org/2000/svg">
  <rect width="192" height="192" rx="48" fill="#3B82F6"/>
  <path d="M96 48C78.3269 48 64 62.3269 64 80C64 97.6731 78.3269 112 96 112C113.673 112 128 97.6731 128 80C128 62.3269 113.673 48 96 48Z" fill="white"/>
  <path d="M96 120C73.9086 120 56 102.091 56 80H48C48 106.51 69.4903 128 96 128C122.51 128 144 106.51 144 80H136C136 102.091 118.091 120 96 120Z" fill="white"/>
  <path d="M56 144C56 130.745 66.7452 120 80 120H112C125.255 120 136 130.745 136 144H144C144 126.327 129.673 112 112 112H80C62.3269 112 48 126.327 48 144H56Z" fill="white"/>
</svg>
