<svg width="512" height="512" viewBox="0 0 512 512" fill="none" xmlns="http://www.w3.org/2000/svg">
  <rect width="512" height="512" rx="128" fill="#3B82F6"/>
  <path d="M256 128C208.872 128 170.667 166.205 170.667 213.333C170.667 260.462 208.872 298.667 256 298.667C303.128 298.667 341.333 260.462 341.333 213.333C341.333 166.205 303.128 128 256 128Z" fill="white"/>
  <path d="M256 320C197.09 320 149.333 272.243 149.333 213.333H128C128 283.975 185.358 341.333 256 341.333C326.642 341.333 384 283.975 384 213.333H362.667C362.667 272.243 314.91 320 256 320Z" fill="white"/>
  <path d="M149.333 384C149.333 348.654 177.987 320 213.333 320H298.667C334.013 320 362.667 348.654 362.667 384H384C384 336.922 345.745 298.667 298.667 298.667H213.333C166.255 298.667 128 336.922 128 384H149.333Z" fill="white"/>
</svg>
