<svg width="512" height="512" viewBox="0 0 512 512" fill="none" xmlns="http://www.w3.org/2000/svg">
  <rect width="512" height="512" rx="128" fill="#3B82F6"/>
  <path d="M256 128C208.872 128 171 165.872 171 213C171 260.128 208.872 298 256 298C303.128 298 341 260.128 341 213C341 165.872 303.128 128 256 128Z" fill="white"/>
  <path d="M256 320C197.424 320 149 268.576 149 213H128C128 281.364 184.636 338 256 338C327.364 338 384 281.364 384 213H363C363 268.576 314.576 320 256 320Z" fill="white"/>
  <path d="M149 384C149 349.654 177.654 321 213 321H299C334.346 321 363 349.654 363 384H384C384 337.235 345.765 299 299 299H213C166.235 299 128 337.235 128 384H149Z" fill="white"/>
</svg>